<?xml version="1.0" encoding="UTF-8" standalone="no"?>
<svg height="100%" stroke-miterlimit="10" style="fill-rule:nonzero;clip-rule:evenodd;stroke-linecap:round;stroke-linejoin:round;" version="1.1" viewBox="0 0 1024 1024" width="100%" xml:space="preserve" xmlns="http://www.w3.org/2000/svg">
<defs/>
<clipPath id="ArtboardFrame">
<rect height="1024" width="1024" x="0" y="0"/>
</clipPath>
<g clip-path="url(#ArtboardFrame)" id="Layer-1">
<path d="M553.63 553.824L1001.28 1003.56" fill="none" opacity="1" stroke="#d9d9d9" stroke-linecap="butt" stroke-linejoin="round" stroke-width="63.9124"/>
<path d="M394.578 475.467L474.795 391.757L617.275 567.659L566.828 617.042L394.578 475.467Z" fill="#00f8c6" fill-rule="nonzero" opacity="1" stroke="none"/>
<path d="M12 282C12 132.883 132.883 12 282 12C431.117 12 552 132.883 552 282C552 431.117 431.117 552 282 552C132.883 552 12 431.117 12 282Z" fill="#00ffcc" fill-rule="nonzero" opacity="1" stroke="none"/>
<path d="M12.0924 279.205C12.0924 130.088 134.513 12 283.63 12C296.792 12 314.907 12.9831 339.556 18.1064C364.204 23.2297 382.464 31.112 382.464 31.112C382.464 31.112 402.177 62.9694 394.821 85.0352C387.464 107.101 353.037 119.375 353.037 119.375C353.037 119.375 364.046 160.456 349.336 182.862C334.625 205.268 294.196 208.999 294.196 208.999C294.196 208.999 302.331 256.3 283.394 273.953C264.457 291.606 218.449 279.612 218.449 279.612C218.449 279.612 202.968 320.41 176.156 327.966C149.344 335.522 111.201 309.837 111.201 309.837C111.201 309.837 89.0803 332.235 64.28 339.747C39.4798 347.259 14.2447 316.243 14.2447 316.243C14.2447 316.243 12.0924 299.642 12.0924 279.205Z" fill="#e8a100" fill-rule="nonzero" opacity="1" stroke="none"/>
<path d="M416.375 48.0312L420.156 60.3438L420.219 60.5L420.25 60.625C420.346 60.9368 420.422 61.2837 420.5 61.625C420.578 61.9662 420.658 62.3018 420.75 62.625C421.03 63.6043 421.296 64.5899 421.562 65.5938C421.828 66.5977 422.091 67.6198 422.312 68.6875C422.431 69.26 422.514 69.8692 422.594 70.4688C422.673 71.0682 422.75 71.6579 422.844 72.25C422.979 73.0962 423.114 73.9385 423.25 74.7812C423.385 75.624 423.519 76.4673 423.594 77.3438C423.637 77.8561 423.634 78.3829 423.625 78.9062C423.617 79.4296 423.607 79.9492 423.625 80.4688C423.634 80.7122 423.629 80.9423 423.625 81.1875C423.622 81.4327 423.622 81.6929 423.625 81.9375C423.652 84.293 423.581 86.6601 423.344 89.0312C423.106 91.4022 422.702 93.7769 422.031 96.125C421.811 96.8956 421.551 97.6625 421.281 98.4062C421.01 99.15 420.729 99.8705 420.406 100.594C420.084 101.317 419.748 102.022 419.375 102.719C419.003 103.416 418.596 104.106 418.188 104.781C417.369 106.137 416.487 107.458 415.531 108.719C414.574 109.979 413.543 111.179 412.469 112.344C411.399 113.505 410.301 114.627 409.156 115.688C408.013 116.748 406.824 117.749 405.625 118.719C399.622 123.578 393.178 127.246 388.25 129.688C383.321 132.129 379.906 133.344 379.906 133.344C379.906 133.344 380.362 136.116 380.812 140.625C381.264 145.134 381.713 151.381 381.688 158.375C381.668 163.62 381.399 169.294 380.656 174.938C379.914 180.581 378.701 186.193 376.844 191.375C376.225 193.102 375.525 194.791 374.75 196.406C373.976 198.022 373.126 199.565 372.188 201.031C370.309 203.964 368.085 206.646 365.625 209.094C363.165 211.541 360.468 213.755 357.656 215.75C356.25 216.748 354.798 217.704 353.344 218.594C351.889 219.483 350.432 220.304 348.969 221.094C347.505 221.883 346.041 222.62 344.594 223.312C343.147 224.005 341.716 224.653 340.312 225.25C338.908 225.847 337.545 226.403 336.219 226.906C334.893 227.409 333.604 227.859 332.375 228.281C328.679 229.553 325.522 230.45 323.281 231.031C321.041 231.612 319.719 231.875 319.719 231.875C319.719 231.875 320.385 238.575 319.75 247.875C319.115 257.176 317.178 269.078 311.969 279.438C311.967 279.442 311.968 279.463 311.969 279.469C310.766 281.86 309.388 284.173 307.812 286.344C306.237 288.515 304.465 290.544 302.469 292.406C301.138 293.647 299.697 294.773 298.188 295.812C296.678 296.852 295.098 297.805 293.438 298.656C288.456 301.211 282.89 302.976 277.219 304.156C271.548 305.337 265.773 305.932 260.375 306.188C253.178 306.529 246.638 306.242 241.906 305.875C237.174 305.508 234.25 305.062 234.25 305.062C234.25 305.062 229.585 313.304 221.531 322.844C213.478 332.384 202.036 343.222 188.438 348.469C187.531 348.819 186.616 349.139 185.688 349.438C184.759 349.735 183.818 350.008 182.875 350.25C167.785 354.121 150.954 351.436 137.906 347.781C124.859 344.126 115.594 339.501 115.594 339.5C115.594 339.5 115.084 339.876 114.156 340.531C113.228 341.186 111.882 342.119 110.188 343.25C108.493 344.381 106.457 345.721 104.156 347.156C101.855 348.591 99.2885 350.121 96.5312 351.688C95.1526 352.471 93.7431 353.253 92.2812 354.031C90.8199 354.809 89.307 355.583 87.7812 356.344C83.2039 358.629 78.3919 360.765 73.5938 362.469C68.7956 364.172 64.0112 365.44 59.5312 365.969C58.1414 366.133 56.7894 366.229 55.4688 366.25C54.1482 366.27 52.8594 366.215 51.5938 366.125C51.1385 366.094 50.714 366.033 50.2812 365.969C49.8486 365.905 49.4079 365.838 48.9688 365.781C48.9266 365.776 48.8853 365.762 48.8438 365.75C48.8023 365.737 48.7608 365.725 48.7188 365.719C48.0314 365.622 47.3308 365.515 46.6562 365.406C45.9816 365.297 45.3327 365.187 44.6875 365.031C44.0847 364.89 43.5126 364.724 42.9375 364.562C42.3623 364.401 41.7837 364.244 41.2188 364.062C40.7836 363.92 40.3585 363.776 39.9375 363.625C39.5788 363.497 39.2274 363.355 38.875 363.219C38.8659 363.215 38.8528 363.222 38.8438 363.219C38.764 363.197 38.7043 363.178 38.625 363.156C38.6036 363.152 38.5821 363.131 38.5625 363.125C38.4734 363.09 38.2402 363.015 38.0312 362.938C38.0011 362.93 37.9393 362.915 37.9062 362.906C37.0366 362.685 35.2268 362.216 34.625 362.062C29.9267 360.867 26.7816 359.6 23.9688 357.938C23.7214 358.023 23.4071 358.125 23.4062 358.125L24.6875 363.188L25.9688 368.219C25.9688 368.219 28.7287 371.162 34.5312 373.75C40.3338 376.338 49.1788 378.569 61.375 377.156C73.5712 375.744 87.4944 369.506 98.375 363.625C109.256 357.744 117.094 352.219 117.094 352.219C117.094 352.219 126.93 356.374 140.625 359.562C154.32 362.751 171.875 364.972 187.281 361.094C202.687 357.215 216.016 346.265 225.5 336.281C234.984 326.298 240.625 317.281 240.625 317.281C240.625 317.281 252.514 318.748 267.125 317.719C281.736 316.69 299.069 313.166 309.938 303.219C320.806 293.272 325.991 277.755 328.469 264.719C330.947 251.682 330.719 241.125 330.719 241.125C330.719 241.125 340.215 238.272 351.625 232.469C363.035 226.665 376.361 217.912 384.031 206.156C391.702 194.401 393.885 177.826 394.156 164.188C394.426 150.548 392.781 139.844 392.781 139.844C392.781 139.844 400.938 136.966 410 131C419.062 125.034 429.031 115.979 432.625 103.625C436.219 91.2709 435.1 78.8959 433.094 69.5938C431.086 60.2917 428.188 54.0625 428.188 54.0625L416.375 48.0312Z" fill="#e8a100" fill-rule="nonzero" opacity="1" stroke="none"/>
</g>
</svg>
