<?xml version="1.0" encoding="UTF-8" standalone="no"?>
<svg height="100%" stroke-miterlimit="10" style="fill-rule:nonzero;clip-rule:evenodd;stroke-linecap:round;stroke-linejoin:round;" version="1.1" viewBox="278.908 2.56449 488.783 1025.53" width="100%" xml:space="preserve" xmlns="http://www.w3.org/2000/svg">
<defs/>
<g id="Max-Left">
<path d="M278.908 1026.17C285.514 859.791 364.595 331.796 520.143 331.53C675.692 331.264 745.936 745.741 767.69 1028.02C456.594 1028.55 278.908 1026.17 278.908 1026.17Z" fill="#03834c" fill-rule="nonzero" opacity="1" stroke="none"/>
<path d="M353.29 185.516C353.29 87.1879 429.736 7.47692 524.039 7.47692C618.341 7.47692 694.787 87.1879 694.787 185.516C694.787 283.845 618.341 363.556 524.039 363.556C429.736 363.556 353.29 283.845 353.29 185.516Z" fill="#ffe8cf" fill-rule="nonzero" opacity="1" stroke="none"/>
<path d="M478.708 64.4706L677.496 132.861L698.34 140.032L682.896 374.228L594.26 379.519L478.708 64.4706Z" fill="#e28b28" fill-rule="nonzero" opacity="1" stroke="none"/>
<path d="M351.573 146.089C352.454 89.4076 427.12 2.56449 521.422 2.56449C615.724 2.56449 697.69 84.846 696.808 141.528L483.913 73.8864L351.573 146.089Z" fill="#e28b28" fill-rule="nonzero" opacity="1" stroke="none"/>
</g>
</svg>
