<?xml version="1.0" encoding="UTF-8" standalone="no"?>
<svg height="100%" stroke-miterlimit="10" style="fill-rule:nonzero;clip-rule:evenodd;stroke-linecap:round;stroke-linejoin:round;" version="1.1" viewBox="277.92 2.56449 490.759 1026.52" width="100%" xml:space="preserve" xmlns="http://www.w3.org/2000/svg">
<defs/>
<g id="Max-Right">
<path d="M767.69 1026.17C761.084 859.791 682.003 331.796 526.455 331.53C370.907 331.264 300.662 745.741 278.908 1028.02C590.004 1028.55 767.69 1026.17 767.69 1026.17Z" fill="#04502f" fill-rule="nonzero" opacity="1" stroke="#ffffff" stroke-linecap="butt" stroke-linejoin="round" stroke-width="1.97663"/>
<path d="M693.309 185.516C693.309 87.1879 616.862 7.47692 522.56 7.47692C428.258 7.47692 351.811 87.1879 351.811 185.516C351.811 283.845 428.258 363.556 522.56 363.556C616.862 363.556 693.309 283.845 693.309 185.516Z" fill="#ffe8cf" fill-rule="nonzero" opacity="1" stroke="none"/>
<path d="M567.891 64.4706L369.102 132.861L348.259 140.032L363.703 374.228L452.339 379.519L567.891 64.4706Z" fill="#e28b28" fill-rule="nonzero" opacity="1" stroke="none"/>
<path d="M695.026 146.089C694.144 89.4076 619.479 2.56449 525.177 2.56449C430.875 2.56449 348.908 84.846 349.79 141.528L562.686 73.8864L695.026 146.089Z" fill="#e28b28" fill-rule="nonzero" opacity="1" stroke="none"/>
</g>
</svg>
