<?xml version="1.0" encoding="UTF-8" standalone="no"?>
<svg height="100%" stroke-miterlimit="10" style="fill-rule:nonzero;clip-rule:evenodd;stroke-linecap:round;stroke-linejoin:round;" version="1.1" viewBox="277.92 2.56449 490.759 1026.52" width="100%" xml:space="preserve" xmlns="http://www.w3.org/2000/svg">
<defs/>
<g id="Vik-Left">
<path d="M278.908 1026.17C285.514 859.791 364.595 331.796 520.143 331.53C675.692 331.264 745.936 745.741 767.69 1028.02C456.594 1028.55 278.908 1026.17 278.908 1026.17Z" fill="#b3f8fe" fill-rule="nonzero" opacity="1" stroke="#ffffff" stroke-linecap="butt" stroke-linejoin="round" stroke-width="1.97663"/>
<path d="M353.29 185.516C353.29 87.1879 429.736 7.47692 524.039 7.47692C618.341 7.47692 694.787 87.1879 694.787 185.516C694.787 283.845 618.341 363.556 524.039 363.556C429.736 363.556 353.29 283.845 353.29 185.516Z" fill="#ffe8cf" fill-rule="nonzero" opacity="1" stroke="none"/>
<path d="M361.989 120.967C362.871 64.2856 427.12 2.56449 521.422 2.56449C615.724 2.56449 674.451 35.5178 698.277 117.765C709.616 156.907 713.114 274.916 632.567 326.545C632.567 326.545 570.577 253.016 531.318 192.227C492.058 131.437 475.53 83.3855 475.53 83.3855L361.989 120.967Z" fill="#c8ac7b" fill-rule="nonzero" opacity="1" stroke="none"/>
</g>
</svg>
