<?xml version="1.0" encoding="UTF-8" standalone="no"?>
<svg height="100%" stroke-miterlimit="10" style="fill-rule:nonzero;clip-rule:evenodd;stroke-linecap:round;stroke-linejoin:round;" version="1.1" viewBox="277.92 2.56449 490.759 1026.52" width="100%" xml:space="preserve" xmlns="http://www.w3.org/2000/svg">
<defs/>
<g id="Vik-Right">
<path d="M767.69 1026.17C761.084 859.791 682.003 331.796 526.455 331.53C370.907 331.264 300.662 745.741 278.908 1028.02C590.004 1028.55 767.69 1026.17 767.69 1026.17Z" fill="#b3f8fe" fill-rule="nonzero" opacity="1" stroke="#ffffff" stroke-linecap="butt" stroke-linejoin="round" stroke-width="1.97663"/>
<path d="M693.309 185.516C693.309 87.1879 616.862 7.47692 522.56 7.47692C428.258 7.47692 351.811 87.1879 351.811 185.516C351.811 283.845 428.258 363.556 522.56 363.556C616.862 363.556 693.309 283.845 693.309 185.516Z" fill="#ffe8cf" fill-rule="nonzero" opacity="1" stroke="none"/>
<path d="M684.61 120.967C683.728 64.2856 619.479 2.56449 525.177 2.56449C430.875 2.56449 372.147 35.5178 348.321 117.765C336.982 156.907 333.485 274.916 414.031 326.545C414.031 326.545 476.022 253.016 515.281 192.227C554.54 131.437 571.068 83.3855 571.068 83.3855L684.61 120.967Z" fill="#c8ac7b" fill-rule="nonzero" opacity="1" stroke="none"/>
</g>
</svg>
