<?xml version="1.0" encoding="UTF-8" standalone="no"?>
<svg height="100%" stroke-miterlimit="10" style="fill-rule:nonzero;clip-rule:evenodd;stroke-linecap:round;stroke-linejoin:round;" version="1.1" viewBox="207.28 -1.85327 612.882 1026.62" width="100%" xml:space="preserve" xmlns="http://www.w3.org/2000/svg">
<defs/>
<g id="Nat-Front">
<path d="M208.269 1023.78C214.875 857.397 364.595 331.796 520.143 331.53C675.692 331.264 797.419 739.755 819.173 1022.04C508.077 1022.57 208.269 1023.78 208.269 1023.78Z" fill="#feabd8" fill-rule="nonzero" opacity="1" stroke="#ffffff" stroke-linecap="butt" stroke-linejoin="round" stroke-width="1.97663"/>
<path d="M304.451 71.6938C304.451 33.701 334.197 2.90174 370.891 2.90174C407.585 2.90174 437.331 33.701 437.331 71.6938C437.331 109.687 407.585 140.486 370.891 140.486C334.197 140.486 304.451 109.687 304.451 71.6938Z" fill="#000000" fill-rule="nonzero" opacity="1" stroke="#ffffff" stroke-linecap="butt" stroke-linejoin="round" stroke-width="1.97663"/>
<path d="M601.279 67.9271C601.279 29.9343 631.025-0.864955 667.719-0.864955C704.413-0.864955 734.159 29.9343 734.159 67.9271C734.159 105.92 704.413 136.719 667.719 136.719C631.025 136.719 601.279 105.92 601.279 67.9271Z" fill="#000000" fill-rule="nonzero" opacity="1" stroke="#ffffff" stroke-linecap="butt" stroke-linejoin="round" stroke-width="1.97663"/>
<path d="M357.79 188.892C357.79 90.5632 429.736 7.47692 524.039 7.47692C618.341 7.47692 689.162 87.1879 689.162 185.516C689.162 283.845 618.341 363.556 524.039 363.556C429.736 363.556 357.79 287.22 357.79 188.892Z" fill="#ffe8cf" fill-rule="nonzero" opacity="1" stroke="none"/>
<path d="M351.573 146.089C352.454 89.4076 427.12 2.56449 521.422 2.56449C615.724 2.56449 695.824 87.3904 694.942 144.072L527.566 74.9175L351.573 146.089Z" fill="#000000" fill-rule="nonzero" opacity="1" stroke="none"/>
</g>
</svg>
