<?xml version="1.0" encoding="UTF-8" standalone="no"?>
<svg height="100%" stroke-miterlimit="10" style="fill-rule:nonzero;clip-rule:evenodd;stroke-linecap:round;stroke-linejoin:round;" version="1.1" viewBox="207.28 -1.85327 612.882 1026.62" width="100%" xml:space="preserve" xmlns="http://www.w3.org/2000/svg">
<defs/>
<g id="Nat-Left">
<path d="M208.269 1023.78C214.875 857.397 364.595 331.796 520.143 331.53C675.692 331.264 797.419 739.755 819.173 1022.04C508.077 1022.57 208.269 1023.78 208.269 1023.78Z" fill="#feabd8" fill-rule="nonzero" opacity="1" stroke="#ffffff" stroke-linecap="butt" stroke-linejoin="round" stroke-width="1.97663"/>
<path d="M357.79 188.892C357.79 90.5632 429.736 7.47692 524.039 7.47692C618.341 7.47692 689.162 87.1879 689.162 185.516C689.162 283.845 618.341 363.556 524.039 363.556C429.736 363.556 357.79 287.22 357.79 188.892Z" fill="#ffe8cf" fill-rule="nonzero" opacity="1" stroke="none"/>
<path d="M384.068 78.7345C384.068 78.7345 427.12 2.56449 521.422 2.56449C615.724 2.56449 682.356 60.3919 694.942 144.072C706.8 222.9 680.212 286.71 637.668 320.463L553.102 158.091C551.795 155.583 548.645 152.611 546.065 151.453L384.068 78.7345Z" fill="#000000" fill-rule="nonzero" opacity="1" stroke="none"/>
<path d="M601.279 67.9271C601.279 29.9343 631.025-0.864955 667.719-0.864955C704.413-0.864955 734.159 29.9343 734.159 67.9271C734.159 105.92 704.413 136.719 667.719 136.719C631.025 136.719 601.279 105.92 601.279 67.9271Z" fill="#000000" fill-rule="nonzero" opacity="1" stroke="#ffffff" stroke-linecap="butt" stroke-linejoin="round" stroke-width="1.97663"/>
</g>
</svg>
