<?xml version="1.0" encoding="UTF-8" standalone="no"?>
<svg height="100%" stroke-miterlimit="10" style="fill-rule:nonzero;clip-rule:evenodd;stroke-linecap:round;stroke-linejoin:round;" version="1.1" viewBox="207.28 -1.85327 612.882 1026.62" width="100%" xml:space="preserve" xmlns="http://www.w3.org/2000/svg">
<defs/>
<g id="Nat-Right">
<path d="M819.173 1023.78C812.567 857.397 662.847 331.796 507.299 331.53C351.75 331.264 230.023 739.755 208.269 1022.04C519.365 1022.57 819.173 1023.78 819.173 1023.78Z" fill="#feabd8" fill-rule="nonzero" opacity="1" stroke="#ffffff" stroke-linecap="butt" stroke-linejoin="round" stroke-width="1.97663"/>
<path d="M669.652 188.892C669.652 90.5632 597.706 7.47692 503.403 7.47692C409.101 7.47692 338.28 87.1879 338.28 185.516C338.28 283.845 409.101 363.556 503.403 363.556C597.706 363.556 669.652 287.22 669.652 188.892Z" fill="#ffe8cf" fill-rule="nonzero" opacity="1" stroke="none"/>
<path d="M643.374 78.7345C643.374 78.7345 600.322 2.56449 506.02 2.56449C411.718 2.56449 345.086 60.3919 332.5 144.072C320.642 222.9 347.23 286.71 389.774 320.463L474.34 158.091C475.647 155.583 478.797 152.611 481.377 151.453L643.374 78.7345Z" fill="#000000" fill-rule="nonzero" opacity="1" stroke="none"/>
<path d="M426.163 67.9271C426.163 29.9343 396.417-0.864955 359.723-0.864955C323.029-0.864955 293.283 29.9343 293.283 67.9271C293.283 105.92 323.029 136.719 359.723 136.719C396.417 136.719 426.163 105.92 426.163 67.9271Z" fill="#000000" fill-rule="nonzero" opacity="1" stroke="#ffffff" stroke-linecap="butt" stroke-linejoin="round" stroke-width="1.97663"/>
</g>
</svg>
