<?xml version="1.0" encoding="UTF-8" standalone="no"?>
<svg height="100%" stroke-miterlimit="10" style="fill-rule:nonzero;clip-rule:evenodd;stroke-linecap:round;stroke-linejoin:round;" version="1.1" viewBox="278.908 2.56449 488.783 1025.53" width="100%" xml:space="preserve" xmlns="http://www.w3.org/2000/svg">
<defs/>
<g id="Dre-Front">
<path d="M278.908 1026.17C285.514 859.791 364.595 331.796 520.143 331.53C675.692 331.264 745.936 745.741 767.69 1028.02C456.594 1028.55 278.908 1026.17 278.908 1026.17Z" fill="#8351c1" fill-rule="nonzero" opacity="1" stroke="none"/>
<path d="M353.29 185.516C353.29 87.1879 429.736 7.47692 524.039 7.47692C618.341 7.47692 694.787 87.1879 694.787 185.516C694.787 283.845 618.341 363.556 524.039 363.556C429.736 363.556 353.29 283.845 353.29 185.516Z" fill="#ffe8cf" fill-rule="nonzero" opacity="1" stroke="none"/>
<path d="M353.29 185.516L415.016 283.227L523.768 238.962L626.003 277.022L694.787 185.516C692.425 199.376 692.73 221.035 683.355 255.062C669.641 304.841 659.061 351.895 645.192 363.556C590.723 409.354 523.257 447.957 523.257 447.957C523.257 447.957 451.082 409.376 399.016 363.556C387.167 353.128 377.25 299.603 364.552 252.536C355.094 217.476 355.53 197.455 353.29 185.516Z" fill="#605242" fill-rule="nonzero" opacity="1" stroke="none"/>
<path d="M476.47 299.413L524.039 271.736L573.25 299.486C565.667 321.208 550.266 337.344 525.026 337.434C499.786 337.523 483.834 318.571 476.47 299.413Z" fill="#f5dfc7" fill-rule="nonzero" opacity="1" stroke="none"/>
<path d="M353.29 185.516C353.29 185.516 351.313 124.915 375.469 79.5371C404.659 24.7037 473.006 2.56449 521.422 2.56449C568.251 2.56449 629.112 31.8679 660.61 77.2918C692.54 123.34 694.787 185.516 694.787 185.516C694.787 185.516 683.015 122.857 653.567 85.879C624.12 48.9014 576.998 37.6058 576.998 37.6058L543.111 64.9436L490.527 64.0098L462.143 37.9777C462.143 37.9777 412.395 47.254 385.182 84.1387C357.969 121.023 353.29 185.516 353.29 185.516Z" fill="#574b3c" fill-rule="nonzero" opacity="1" stroke="none"/>
</g>
</svg>
