<?xml version="1.0" encoding="UTF-8" standalone="no"?>
<svg height="100%" stroke-miterlimit="10" style="fill-rule:nonzero;clip-rule:evenodd;stroke-linecap:round;stroke-linejoin:round;" version="1.1" viewBox="277.92 2.56449 490.759 1026.52" width="100%" xml:space="preserve" xmlns="http://www.w3.org/2000/svg">
<defs/>
<g id="Dre-Left">
<path d="M278.908 1026.17C285.514 859.791 364.595 331.796 520.143 331.53C675.692 331.264 745.936 745.741 767.69 1028.02C456.594 1028.55 278.908 1026.17 278.908 1026.17Z" fill="#421a73" fill-rule="nonzero" opacity="1" stroke="#ffffff" stroke-linecap="butt" stroke-linejoin="round" stroke-width="1.97663"/>
<path d="M353.29 185.516C353.29 87.1879 429.736 7.47692 524.039 7.47692C618.341 7.47692 694.787 87.1879 694.787 185.516C694.787 283.845 618.341 363.556 524.039 363.556C429.736 363.556 353.29 283.845 353.29 185.516Z" fill="#ffe8cf" fill-rule="nonzero" opacity="1" stroke="none"/>
<path d="M368.888 255.815C368.888 255.815 435.745 270.895 502.603 285.976C475.982 366.443 463.785 442.427 430.357 434.887C396.928 427.347 368.888 255.815 368.888 255.815Z" fill="#605242" fill-rule="nonzero" opacity="1" stroke="none"/>
<path d="M375.723 289.846L402.425 292.21C402.425 292.21 403.644 301.803 402.295 309.868C400.946 317.933 397.03 324.471 393.693 324.175C390.198 323.866 385.028 319.512 381.285 310.63C377.878 302.546 375.723 289.846 375.723 289.846Z" fill="#f5dfc7" fill-rule="nonzero" opacity="1" stroke="none"/>
<path d="M412.577 47.7531C412.577 47.7531 427.12 2.56449 521.422 2.56449C615.724 2.56449 660.342 42.4673 688.422 104.214C715.723 164.25 705.607 215.776 699.654 234.551C690.978 261.918 638.921 321.565 638.921 321.565L462.143 37.9777L412.577 47.7531Z" fill="#574b3c" fill-rule="nonzero" opacity="1" stroke="none"/>
</g>
</svg>
