<?xml version="1.0" encoding="UTF-8" standalone="no"?>
<svg height="100%" stroke-miterlimit="10" style="fill-rule:nonzero;clip-rule:evenodd;stroke-linecap:round;stroke-linejoin:round;" version="1.1" viewBox="278.908 2.56449 488.783 1025.53" width="100%" xml:space="preserve" xmlns="http://www.w3.org/2000/svg">
<defs/>
<g id="Dre-Left">
<path d="M278.908 1026.17C285.514 859.791 364.595 331.796 520.143 331.53C675.692 331.264 745.936 745.741 767.69 1028.02C456.594 1028.55 278.908 1026.17 278.908 1026.17Z" fill="#8351c1" fill-rule="nonzero" opacity="1" stroke="none"/>
<path d="M353.29 185.516C353.29 87.1879 429.736 7.47692 524.039 7.47692C618.341 7.47692 694.787 87.1879 694.787 185.516C694.787 283.845 618.341 363.556 524.039 363.556C429.736 363.556 353.29 283.845 353.29 185.516Z" fill="#ffe8cf" fill-rule="nonzero" opacity="1" stroke="none"/>
<path d="M353.84 259.659L456.076 297.72L524.86 206.214C522.498 220.074 522.803 241.732 513.428 275.76C499.714 325.539 489.133 372.593 475.265 384.253C420.795 430.052 353.33 468.654 353.33 468.654L353.84 259.659Z" fill="#605242" fill-rule="nonzero" opacity="1" stroke="none"/>
<path d="M366.321 271.736L415.533 299.486C407.95 321.208 367.309 337.434 367.309 337.434L366.321 271.736Z" fill="#f5dfc7" fill-rule="nonzero" opacity="1" stroke="none"/>
<path d="M521.422 2.56449C568.251 2.56449 629.112 31.8679 660.61 77.2918C674.88 97.872 704.597 153.919 694.787 206.214C682.649 270.927 628.387 331.53 628.387 331.53L524.86 206.214L488.81 41.7559L439.095 65.4624L390.927 63.4911C401.72 44.9436 473.006 2.56449 521.422 2.56449Z" fill="#574b3c" fill-rule="nonzero" opacity="1" stroke="none"/>
</g>
</svg>
