<?xml version="1.0" encoding="UTF-8" standalone="no"?>
<svg height="100%" stroke-miterlimit="10" style="fill-rule:nonzero;clip-rule:evenodd;stroke-linecap:round;stroke-linejoin:round;" version="1.1" viewBox="278.908 2.56449 488.783 1025.53" width="100%" xml:space="preserve" xmlns="http://www.w3.org/2000/svg">
<defs/>
<g id="Dre-Left-copy">
<path d="M767.69 1026.17C761.084 859.791 682.003 331.796 526.455 331.53C370.907 331.264 300.662 745.741 278.908 1028.02C590.004 1028.55 767.69 1026.17 767.69 1026.17Z" fill="#8351c1" fill-rule="nonzero" opacity="1" stroke="none"/>
<path d="M693.309 185.516C693.309 87.1879 616.862 7.47692 522.56 7.47692C428.258 7.47692 351.811 87.1879 351.811 185.516C351.811 283.845 428.258 363.556 522.56 363.556C616.862 363.556 693.309 283.845 693.309 185.516Z" fill="#ffe8cf" fill-rule="nonzero" opacity="1" stroke="none"/>
<path d="M692.758 259.659L590.523 297.72L521.738 206.214C524.101 220.074 523.796 241.732 533.17 275.76C546.885 325.539 557.465 372.593 571.334 384.253C625.803 430.052 693.268 468.654 693.268 468.654L692.758 259.659Z" fill="#605242" fill-rule="nonzero" opacity="1" stroke="none"/>
<path d="M680.277 271.736L631.066 299.486C638.648 321.208 679.29 337.434 679.29 337.434L680.277 271.736Z" fill="#f5dfc7" fill-rule="nonzero" opacity="1" stroke="none"/>
<path d="M525.177 2.56449C478.347 2.56449 417.487 31.8679 385.989 77.2918C371.718 97.872 342.002 153.919 351.811 206.214C363.95 270.927 418.211 331.53 418.211 331.53L521.738 206.214L557.788 41.7559L607.503 65.4624L655.672 63.4911C644.878 44.9436 573.593 2.56449 525.177 2.56449Z" fill="#574b3c" fill-rule="nonzero" opacity="1" stroke="none"/>
</g>
</svg>
