<?xml version="1.0" encoding="UTF-8" standalone="no"?>
<svg height="100%" stroke-miterlimit="10" style="fill-rule:nonzero;clip-rule:evenodd;stroke-linecap:round;stroke-linejoin:round;" version="1.1" viewBox="277.92 2.56449 490.759 1026.52" width="100%" xml:space="preserve" xmlns="http://www.w3.org/2000/svg">
<defs/>
<g id="Dre-Right">
<path d="M767.69 1026.17C761.084 859.791 682.003 331.796 526.455 331.53C370.907 331.264 300.662 745.741 278.908 1028.02C590.004 1028.55 767.69 1026.17 767.69 1026.17Z" fill="#421a73" fill-rule="nonzero" opacity="1" stroke="#ffffff" stroke-linecap="butt" stroke-linejoin="round" stroke-width="1.97663"/>
<path d="M693.309 185.516C693.309 87.1879 616.862 7.47692 522.56 7.47692C428.258 7.47692 351.811 87.1879 351.811 185.516C351.811 283.845 428.258 363.556 522.56 363.556C616.862 363.556 693.309 283.845 693.309 185.516Z" fill="#ffe8cf" fill-rule="nonzero" opacity="1" stroke="none"/>
<path d="M677.71 255.815C677.71 255.815 610.853 270.895 543.996 285.976C570.616 366.443 582.813 442.427 616.242 434.887C649.671 427.347 677.71 255.815 677.71 255.815Z" fill="#605242" fill-rule="nonzero" opacity="1" stroke="none"/>
<path d="M670.876 289.846L644.173 292.21C644.173 292.21 642.955 301.803 644.304 309.868C645.652 317.933 649.568 324.471 652.906 324.175C656.401 323.866 661.57 319.512 665.314 310.63C668.721 302.546 670.876 289.846 670.876 289.846Z" fill="#f5dfc7" fill-rule="nonzero" opacity="1" stroke="none"/>
<path d="M634.022 47.7531C634.022 47.7531 619.479 2.56449 525.177 2.56449C430.875 2.56449 386.256 42.4673 358.177 104.214C330.875 164.25 340.992 215.776 346.944 234.551C355.621 261.918 407.678 321.565 407.678 321.565L584.456 37.9777L634.022 47.7531Z" fill="#574b3c" fill-rule="nonzero" opacity="1" stroke="none"/>
</g>
</svg>
