<?xml version="1.0" encoding="UTF-8" standalone="no"?>
<svg height="100%" stroke-miterlimit="10" style="fill-rule:nonzero;clip-rule:evenodd;stroke-linecap:round;stroke-linejoin:round;" version="1.1" viewBox="277.92 2.56449 490.759 1026.52" width="100%" xml:space="preserve" xmlns="http://www.w3.org/2000/svg">
<defs/>
<g id="Dre-Back">
<path d="M380.136 290.334L523.768 238.962L667.485 285.976C647.052 391.31 590.542 448.295 522.528 448.729C454.514 449.163 399.98 383.235 380.136 290.334Z" fill="#605242" fill-rule="nonzero" opacity="1" stroke="none"/>
<path d="M353.29 185.516C353.29 87.1879 429.736 7.47692 524.039 7.47692C618.341 7.47692 694.787 87.1879 694.787 185.516C694.787 283.845 618.341 363.556 524.039 363.556C429.736 363.556 353.29 283.845 353.29 185.516Z" fill="#ffe8cf" fill-rule="nonzero" opacity="1" stroke="none"/>
<path d="M374.494 98.6826C374.494 98.6826 427.12 2.56449 521.422 2.56449C615.724 2.56449 672.021 95.1024 672.021 95.1024L583.821 299.157L468.282 298.879L374.494 98.6826Z" fill="#574b3c" fill-rule="nonzero" opacity="1" stroke="none"/>
<path d="M278.908 1026.17C285.514 859.791 364.595 331.796 520.143 331.53C675.692 331.264 745.936 745.741 767.69 1028.02C456.594 1028.55 278.908 1026.17 278.908 1026.17Z" fill="#421a73" fill-rule="nonzero" opacity="1" stroke="#ffffff" stroke-linecap="butt" stroke-linejoin="round" stroke-width="1.97663"/>
</g>
</svg>
