<?xml version="1.0" encoding="UTF-8" standalone="no"?>
<svg height="100%" stroke-miterlimit="10"
     style="fill-rule:nonzero;clip-rule:evenodd;stroke-linecap:round;stroke-linejoin:round;" version="1.1"
     viewBox="0 0 1024 1024" width="100%" xml:space="preserve" xmlns="http://www.w3.org/2000/svg">
    <animateTransform attributeName="transform" attributeType="XML" dur="1s" from="0.5" repeatCount="indefinite" to="1"
                      type="scale"/>
    <defs/>
    <g id="Layer-1">
<path d="M101.262 500.899L101.262 400.899L241.262 400.899L241.262 380.899L61.2615 380.899L61.2615 640.899L101.262 640.899L101.262 519.931L221.262 520.899L221.262 500.899L101.262 500.899"
      fill="#ff0043" fill-rule="nonzero" opacity="1" stroke="none"/>
        <path d="M701.262 640.899L541.262 640.899L541.262 620.899L601.262 620.401L601.262 400.899L541.262 400.899L541.262 380.899L701.262 380.899L701.262 400.899L641.262 400.899L641.262 620.899L701.262 620.899L701.262 640.899"
              fill="#ff0043" fill-rule="nonzero" opacity="1" stroke="none"/>
        <path d="M361.262 380.899L281.262 640.899L321.262 640.899L341.262 580.899L421.262 580.899L441.262 640.899L481.262 640.899L401.262 380.899L361.262 380.899ZM381.262 420.899L417.398 560.899L345.044 561.002L381.262 420.899Z"
              fill="#ff0043" fill-rule="nonzero" opacity="1" stroke="none"/>
        <path d="M961.262 640.899L961.262 620.899L841.262 620.899L841.262 380.899L801.262 380.899L801.262 640.899L961.262 640.899"
              fill="#ff0043" fill-rule="nonzero" opacity="1" stroke="none"/>
</g>
</svg>
