<?xml version="1.0" encoding="UTF-8" standalone="no"?>
<svg height="100%" stroke-miterlimit="10" style="fill-rule:nonzero;clip-rule:evenodd;stroke-linecap:round;stroke-linejoin:round;" version="1.1" viewBox="0 0 1024 1024" width="100%" xml:space="preserve" xmlns="http://www.w3.org/2000/svg">
<defs/>
<clipPath id="ArtboardFrame">
<rect height="1024" width="1024" x="0" y="0"/>
</clipPath>
<g clip-path="url(#ArtboardFrame)" id="Front">
<path d="M278.908 891.787C285.514 757.592 364.595 331.745 520.143 331.53C675.692 331.316 745.936 665.607 767.69 893.276C456.594 893.705 278.908 891.787 278.908 891.787Z" fill="#929292" fill-rule="nonzero" opacity="1" stroke="#ffffff" stroke-linecap="butt" stroke-linejoin="round" stroke-width="1.97663"/>
<path d="M353.29 185.516C353.29 87.1879 429.736 7.47692 524.039 7.47692C618.341 7.47692 694.787 87.1879 694.787 185.516C694.787 283.845 618.341 363.556 524.039 363.556C429.736 363.556 353.29 283.845 353.29 185.516Z" fill="#fff8f0" fill-rule="nonzero" opacity="1" stroke="none"/>
<path d="M351.573 146.089C352.454 89.4076 427.12 2.56449 521.422 2.56449C615.724 2.56449 695.824 87.3904 694.942 144.072L620.748 79.7091L351.573 146.089Z" fill="#000000" fill-rule="nonzero" opacity="1" stroke="none"/>
<path d="M315.932 897.929L727.859 897.929L727.859 929.935L315.932 929.935L315.932 897.929Z" fill="#26263f" fill-rule="nonzero" opacity="1" stroke="none"/>
<path d="M-0.558448 897.929L1023.25 897.929L1023.25 1028.46L-0.558448 1028.46L-0.558448 897.929Z" fill="#8a8a8a" fill-rule="nonzero" opacity="1" stroke="none"/>
<path d="M394.859 202.094C394.859 174.479 417.245 152.094 444.859 152.094C472.473 152.094 494.859 174.479 494.859 202.094C494.859 229.708 472.473 252.094 444.859 252.094C417.245 252.094 394.859 229.708 394.859 202.094Z" fill="#d7d7f8" fill-rule="nonzero" opacity="1" stroke="#020202" stroke-linecap="butt" stroke-linejoin="round" stroke-width="17.3681"/>
<path d="M545.256 198.496C545.256 170.881 567.641 148.496 595.256 148.496C622.87 148.496 645.256 170.881 645.256 198.496C645.256 226.11 622.87 248.496 595.256 248.496C567.641 248.496 545.256 226.11 545.256 198.496Z" fill="#d7d7f8" fill-rule="nonzero" opacity="1" stroke="#020202" stroke-linecap="butt" stroke-linejoin="round" stroke-width="17.3681"/>
<path d="M499.8 200.999L545.135 200.279" fill="none" opacity="1" stroke="#020202" stroke-linecap="butt" stroke-linejoin="round" stroke-width="17.3681"/>
<path d="M45.8691 228.375L45.8691 824.812L454.524 824.812L454.524 869.781L298.514 869.781L298.514 901.781L758.382 901.781L758.382 869.781L599.964 869.781L599.964 824.812L982.176 824.812L982.176 228.375L45.8691 228.375Z" fill="#e4e54a" fill-rule="nonzero" opacity="1" stroke="#ffffff" stroke-linecap="butt" stroke-linejoin="round" stroke-width="1.97663"/>
<path d="M521.385 408.714C531.257 396.09 549.865 394.15 549.865 394.15C549.865 394.15 552.467 412.677 542.594 425.301C532.722 437.925 514.114 439.866 514.114 439.866C514.114 439.866 511.512 421.338 521.385 408.714Z" fill="#919191" fill-rule="nonzero" opacity="1" stroke="none"/>
<path d="M541.939 442.163C527.292 443.314 519.67 450.544 514.831 450.507C508.008 450.456 498.67 438.902 474.566 444.689C452.214 450.055 443.349 477.98 448.283 504.12C453.347 530.952 481.87 563.278 489.342 567.327C497.654 571.83 510.534 566.445 515.479 566.503C520.251 566.56 535.3 571.364 541.722 566.538C557.371 554.779 570.394 541.832 579.761 521.291C573.269 514.39 565.779 504.023 564.426 491.377C562.781 476.006 570.621 461.54 576.023 453.544C571.445 448.604 565.75 445.026 559.099 443.553C552.499 442.092 546.821 441.779 541.939 442.163Z" fill="#9f9f9f" fill-rule="nonzero" opacity="1" stroke="none"/>
<g opacity="1"/>
</g>
</svg>
