<?xml version="1.0" encoding="UTF-8" standalone="no"?>
<svg height="100%" stroke-miterlimit="10" style="fill-rule:nonzero;clip-rule:evenodd;stroke-linecap:round;stroke-linejoin:round;" version="1.1" viewBox="0 0 1024 1024" width="100%" xml:space="preserve" xmlns="http://www.w3.org/2000/svg">
<defs/>
<clipPath id="ArtboardFrame">
<rect height="1024" width="1024" x="0" y="0"/>
</clipPath>
<g clip-path="url(#ArtboardFrame)" id="Front">
<path d="M315.932 897.929L727.859 897.929L727.859 929.935L315.932 929.935L315.932 897.929Z" fill="#26263f" fill-rule="nonzero" opacity="1" stroke="none"/>
<path d="M-0.558448 897.929L1023.25 897.929L1023.25 1028.46L-0.558448 1028.46L-0.558448 897.929Z" fill="#8a8a8a" fill-rule="nonzero" opacity="1" stroke="none"/>
<path d="M45.8691 228.375L45.8691 824.812L454.524 824.812L454.524 869.781L298.514 869.781L298.514 901.781L758.382 901.781L758.382 869.781L599.964 869.781L599.964 824.812L982.176 824.812L982.176 228.375L45.8691 228.375Z" fill="#5c5555" fill-rule="nonzero" opacity="1" stroke="#ffffff" stroke-linecap="butt" stroke-linejoin="round" stroke-width="1.97663"/>
<path d="M521.385 408.714C531.257 396.09 549.865 394.15 549.865 394.15C549.865 394.15 552.467 412.677 542.594 425.301C532.722 437.925 514.114 439.866 514.114 439.866C514.114 439.866 511.512 421.338 521.385 408.714Z" fill="#919191" fill-rule="nonzero" opacity="1" stroke="none"/>
<path d="M541.939 442.163C527.292 443.314 519.67 450.544 514.831 450.507C508.008 450.456 498.67 438.902 474.566 444.689C452.214 450.055 443.349 477.98 448.283 504.12C453.347 530.952 481.87 563.278 489.342 567.327C497.654 571.83 510.534 566.445 515.479 566.503C520.251 566.56 535.3 571.364 541.722 566.538C557.371 554.779 570.394 541.832 579.761 521.291C573.269 514.39 565.779 504.023 564.426 491.377C562.781 476.006 570.621 461.54 576.023 453.544C571.445 448.604 565.75 445.026 559.099 443.553C552.499 442.092 546.821 441.779 541.939 442.163Z" fill="#9f9f9f" fill-rule="nonzero" opacity="1" stroke="none"/>
<g opacity="1"/>
</g>
</svg>
